<mxfile host="app.diagrams.net" modified="2024-05-01T15:17:19.660Z" agent="Mozilla/5.0 (Windows NT 10.0; Win64; x64) AppleWebKit/537.36 (KHTML, like Gecko) Chrome/124.0.0.0 Safari/537.36" etag="rimriHxpH3w3pCupaAai" version="24.2.9" type="device">
  <diagram name="Page-1" id="o_XMoVHFaD4bVyNtFaPu">
    <mxGraphModel dx="1461" dy="652" grid="1" gridSize="10" guides="1" tooltips="1" connect="1" arrows="1" fold="1" page="1" pageScale="1" pageWidth="850" pageHeight="1100" math="0" shadow="0">
      <root>
        <mxCell id="0" />
        <mxCell id="1" parent="0" />
        <mxCell id="gNMJIU5H0zqgDafBS_Q5-22" style="edgeStyle=orthogonalEdgeStyle;rounded=0;orthogonalLoop=1;jettySize=auto;html=1;" parent="1" source="gNMJIU5H0zqgDafBS_Q5-1" target="gNMJIU5H0zqgDafBS_Q5-19" edge="1">
          <mxGeometry relative="1" as="geometry" />
        </mxCell>
        <mxCell id="gNMJIU5H0zqgDafBS_Q5-1" value="" style="ellipse;fillColor=strokeColor;html=1;" parent="1" vertex="1">
          <mxGeometry x="80" y="90" width="30" height="30" as="geometry" />
        </mxCell>
        <mxCell id="gNMJIU5H0zqgDafBS_Q5-29" value="" style="edgeStyle=orthogonalEdgeStyle;rounded=0;orthogonalLoop=1;jettySize=auto;html=1;" parent="1" source="gNMJIU5H0zqgDafBS_Q5-19" target="gNMJIU5H0zqgDafBS_Q5-27" edge="1">
          <mxGeometry relative="1" as="geometry" />
        </mxCell>
        <mxCell id="gNMJIU5H0zqgDafBS_Q5-19" value="Prescription received by pharmacist" style="swimlane;childLayout=stackLayout;horizontal=1;startSize=50;horizontalStack=0;rounded=1;fontSize=14;fontStyle=0;strokeWidth=2;resizeParent=0;resizeLast=1;shadow=0;dashed=0;align=center;arcSize=4;whiteSpace=wrap;html=1;" parent="1" vertex="1">
          <mxGeometry x="15" y="220" width="160" height="120" as="geometry" />
        </mxCell>
        <mxCell id="gNMJIU5H0zqgDafBS_Q5-20" value="&amp;nbsp;entry/ patient info&lt;div&gt;exit/ prescription confirmed&lt;/div&gt;" style="align=left;strokeColor=none;fillColor=none;spacingLeft=4;fontSize=12;verticalAlign=top;resizable=0;rotatable=0;part=1;html=1;" parent="gNMJIU5H0zqgDafBS_Q5-19" vertex="1">
          <mxGeometry y="50" width="160" height="70" as="geometry" />
        </mxCell>
        <mxCell id="gNMJIU5H0zqgDafBS_Q5-23" value="[upload patient info&lt;div&gt;&amp;nbsp;and prescription]&lt;/div&gt;" style="text;html=1;align=center;verticalAlign=middle;resizable=0;points=[];autosize=1;strokeColor=none;fillColor=none;" parent="1" vertex="1">
          <mxGeometry x="85" y="130" width="120" height="40" as="geometry" />
        </mxCell>
        <mxCell id="gNMJIU5H0zqgDafBS_Q5-32" value="" style="edgeStyle=orthogonalEdgeStyle;rounded=0;orthogonalLoop=1;jettySize=auto;html=1;" parent="1" source="gNMJIU5H0zqgDafBS_Q5-27" target="gNMJIU5H0zqgDafBS_Q5-30" edge="1">
          <mxGeometry relative="1" as="geometry" />
        </mxCell>
        <mxCell id="gNMJIU5H0zqgDafBS_Q5-27" value="Update prescription" style="swimlane;childLayout=stackLayout;horizontal=1;startSize=50;horizontalStack=0;rounded=1;fontSize=14;fontStyle=0;strokeWidth=2;resizeParent=0;resizeLast=1;shadow=0;dashed=0;align=center;arcSize=4;whiteSpace=wrap;html=1;" parent="1" vertex="1">
          <mxGeometry x="15" y="381" width="160" height="120" as="geometry" />
        </mxCell>
        <mxCell id="gNMJIU5H0zqgDafBS_Q5-28" value="&lt;div&gt;entry/ review patient info&lt;/div&gt;&lt;div&gt;do/ update prescription&amp;nbsp;&lt;/div&gt;&lt;div&gt;&lt;span style=&quot;background-color: initial;&quot;&gt;according to the patient&#39;s info&lt;/span&gt;&lt;/div&gt;&lt;div&gt;&lt;span style=&quot;background-color: initial;&quot;&gt;&amp;nbsp;exit/ Prescription updated&lt;/span&gt;&lt;/div&gt;" style="align=left;strokeColor=none;fillColor=none;spacingLeft=4;fontSize=12;verticalAlign=top;resizable=0;rotatable=0;part=1;html=1;" parent="gNMJIU5H0zqgDafBS_Q5-27" vertex="1">
          <mxGeometry y="50" width="160" height="70" as="geometry" />
        </mxCell>
        <mxCell id="gNMJIU5H0zqgDafBS_Q5-38" value="" style="edgeStyle=orthogonalEdgeStyle;rounded=0;orthogonalLoop=1;jettySize=auto;html=1;" parent="1" source="gNMJIU5H0zqgDafBS_Q5-30" target="gNMJIU5H0zqgDafBS_Q5-36" edge="1">
          <mxGeometry relative="1" as="geometry" />
        </mxCell>
        <mxCell id="gNMJIU5H0zqgDafBS_Q5-30" value="Update inventory" style="swimlane;childLayout=stackLayout;horizontal=1;startSize=50;horizontalStack=0;rounded=1;fontSize=14;fontStyle=0;strokeWidth=2;resizeParent=0;resizeLast=1;shadow=0;dashed=0;align=center;arcSize=4;whiteSpace=wrap;html=1;" parent="1" vertex="1">
          <mxGeometry x="15" y="550" width="160" height="120" as="geometry" />
        </mxCell>
        <mxCell id="gNMJIU5H0zqgDafBS_Q5-31" value="&amp;nbsp;entry/ prescription details&lt;div&gt;&amp;nbsp;do/ Update the inventory&lt;/div&gt;&lt;div&gt;&lt;div&gt;&amp;nbsp;exit/ Confirm changes&lt;br&gt;&lt;/div&gt;&lt;/div&gt;" style="align=left;strokeColor=none;fillColor=none;spacingLeft=4;fontSize=12;verticalAlign=top;resizable=0;rotatable=0;part=1;html=1;" parent="gNMJIU5H0zqgDafBS_Q5-30" vertex="1">
          <mxGeometry y="50" width="160" height="70" as="geometry" />
        </mxCell>
        <mxCell id="gNMJIU5H0zqgDafBS_Q5-33" value="[prescription file opened]" style="text;html=1;align=center;verticalAlign=middle;resizable=0;points=[];autosize=1;strokeColor=none;fillColor=none;" parent="1" vertex="1">
          <mxGeometry x="95" y="350" width="150" height="30" as="geometry" />
        </mxCell>
        <mxCell id="gNMJIU5H0zqgDafBS_Q5-34" value="[prescripiton updated]" style="text;html=1;align=center;verticalAlign=middle;resizable=0;points=[];autosize=1;strokeColor=none;fillColor=none;" parent="1" vertex="1">
          <mxGeometry x="90" y="510" width="140" height="30" as="geometry" />
        </mxCell>
        <mxCell id="gNMJIU5H0zqgDafBS_Q5-36" value="Prescription file" style="swimlane;childLayout=stackLayout;horizontal=1;startSize=50;horizontalStack=0;rounded=1;fontSize=14;fontStyle=0;strokeWidth=2;resizeParent=0;resizeLast=1;shadow=0;dashed=0;align=center;arcSize=4;whiteSpace=wrap;html=1;" parent="1" vertex="1">
          <mxGeometry x="290" y="550" width="160" height="120" as="geometry" />
        </mxCell>
        <mxCell id="gNMJIU5H0zqgDafBS_Q5-37" value="&lt;div&gt;&lt;div&gt;&amp;nbsp;exit/ PDF file created&lt;/div&gt;&lt;/div&gt;" style="align=left;strokeColor=none;fillColor=none;spacingLeft=4;fontSize=12;verticalAlign=top;resizable=0;rotatable=0;part=1;html=1;" parent="gNMJIU5H0zqgDafBS_Q5-36" vertex="1">
          <mxGeometry y="50" width="160" height="70" as="geometry" />
        </mxCell>
        <mxCell id="gNMJIU5H0zqgDafBS_Q5-39" value="[prescription physical&lt;div&gt;document]&lt;/div&gt;" style="text;html=1;align=center;verticalAlign=middle;resizable=0;points=[];autosize=1;strokeColor=none;fillColor=none;" parent="1" vertex="1">
          <mxGeometry x="165" y="560" width="140" height="40" as="geometry" />
        </mxCell>
        <mxCell id="gNMJIU5H0zqgDafBS_Q5-40" value="" style="ellipse;html=1;shape=endState;fillColor=#000000;strokeColor=#ff0000;" parent="1" vertex="1">
          <mxGeometry x="80" y="750" width="30" height="30" as="geometry" />
        </mxCell>
        <mxCell id="gNMJIU5H0zqgDafBS_Q5-41" style="edgeStyle=orthogonalEdgeStyle;rounded=0;orthogonalLoop=1;jettySize=auto;html=1;exitX=0.5;exitY=1;exitDx=0;exitDy=0;entryX=1;entryY=0.5;entryDx=0;entryDy=0;" parent="1" source="gNMJIU5H0zqgDafBS_Q5-37" target="gNMJIU5H0zqgDafBS_Q5-40" edge="1">
          <mxGeometry relative="1" as="geometry" />
        </mxCell>
        <mxCell id="gNMJIU5H0zqgDafBS_Q5-42" style="edgeStyle=orthogonalEdgeStyle;rounded=0;orthogonalLoop=1;jettySize=auto;html=1;entryX=0.5;entryY=0;entryDx=0;entryDy=0;" parent="1" source="gNMJIU5H0zqgDafBS_Q5-31" target="gNMJIU5H0zqgDafBS_Q5-40" edge="1">
          <mxGeometry relative="1" as="geometry" />
        </mxCell>
        <mxCell id="gNMJIU5H0zqgDafBS_Q5-43" value="[PDF file created]" style="text;html=1;align=center;verticalAlign=middle;resizable=0;points=[];autosize=1;strokeColor=none;fillColor=none;" parent="1" vertex="1">
          <mxGeometry x="160" y="738" width="120" height="30" as="geometry" />
        </mxCell>
        <mxCell id="gNMJIU5H0zqgDafBS_Q5-44" value="[finish]" style="text;html=1;align=center;verticalAlign=middle;resizable=0;points=[];autosize=1;strokeColor=none;fillColor=none;" parent="1" vertex="1">
          <mxGeometry x="100" y="708" width="60" height="30" as="geometry" />
        </mxCell>
      </root>
    </mxGraphModel>
  </diagram>
</mxfile>
